<svg xmlns="http://www.w3.org/2000/svg" xmlns:xlink="http://www.w3.org/1999/xlink" contentStyleType="text/css" height="1363px" preserveAspectRatio="none" style="width:975px;height:1363px;background:#FFFFFF;" version="1.1" viewBox="0 0 975 1363" width="975px" zoomAndPan="magnify"><defs/><g><rect fill="none" height="90.2031" style="stroke:#000000;stroke-width:1.5;" width="948.0879" x="10" y="270.9609"/><rect fill="none" height="90.2031" style="stroke:#000000;stroke-width:1.5;" width="948.0879" x="10" y="563.9609"/><rect fill="none" height="119.3359" style="stroke:#000000;stroke-width:1.5;" width="948.0879" x="10" y="886.0938"/><line style="stroke:#181818;stroke-width:0.5;stroke-dasharray:5.0,5.0;" x1="49" x2="49" y1="81.2969" y2="1282.4922"/><line style="stroke:#181818;stroke-width:0.5;stroke-dasharray:5.0,5.0;" x1="517.2607" x2="517.2607" y1="81.2969" y2="1282.4922"/><line style="stroke:#181818;stroke-width:0.5;stroke-dasharray:5.0,5.0;" x1="893.8955" x2="893.8955" y1="81.2969" y2="1282.4922"/><text fill="#000000" font-family="sans-serif" font-size="14" lengthAdjust="spacing" textLength="53.2041" x="20" y="77.9951">Usuario</text><ellipse cx="49.6021" cy="13.5" fill="#E2E2F0" rx="8" ry="8" style="stroke:#181818;stroke-width:0.5;"/><path d="M49.6021,21.5 L49.6021,48.5 M36.6021,29.5 L62.6021,29.5 M49.6021,48.5 L36.6021,63.5 M49.6021,48.5 L62.6021,63.5 " fill="none" style="stroke:#181818;stroke-width:0.5;"/><text fill="#000000" font-family="sans-serif" font-size="14" lengthAdjust="spacing" textLength="53.2041" x="20" y="1294.4873">Usuario</text><ellipse cx="49.6021" cy="1306.2891" fill="#E2E2F0" rx="8" ry="8" style="stroke:#181818;stroke-width:0.5;"/><path d="M49.6021,1314.2891 L49.6021,1341.2891 M36.6021,1322.2891 L62.6021,1322.2891 M49.6021,1341.2891 L36.6021,1356.2891 M49.6021,1341.2891 L62.6021,1356.2891 " fill="none" style="stroke:#181818;stroke-width:0.5;"/><rect fill="#E2E2F0" height="30.2969" rx="2.5" ry="2.5" style="stroke:#181818;stroke-width:0.5;" width="70.3896" x="482.2607" y="50"/><text fill="#000000" font-family="sans-serif" font-size="14" lengthAdjust="spacing" textLength="56.3896" x="489.2607" y="69.9951">Sistema</text><rect fill="#E2E2F0" height="30.2969" rx="2.5" ry="2.5" style="stroke:#181818;stroke-width:0.5;" width="70.3896" x="482.2607" y="1281.4922"/><text fill="#000000" font-family="sans-serif" font-size="14" lengthAdjust="spacing" textLength="56.3896" x="489.2607" y="1301.4873">Sistema</text><rect fill="#E2E2F0" height="30.2969" rx="2.5" ry="2.5" style="stroke:#181818;stroke-width:0.5;" width="108.1924" x="839.8955" y="50"/><text fill="#000000" font-family="sans-serif" font-size="14" lengthAdjust="spacing" textLength="94.1924" x="846.8955" y="69.9951">BaseDeDatos</text><rect fill="#E2E2F0" height="30.2969" rx="2.5" ry="2.5" style="stroke:#181818;stroke-width:0.5;" width="108.1924" x="839.8955" y="1281.4922"/><text fill="#000000" font-family="sans-serif" font-size="14" lengthAdjust="spacing" textLength="94.1924" x="846.8955" y="1301.4873">BaseDeDatos</text><rect fill="#EEEEEE" height="3" style="stroke:#EEEEEE;stroke-width:1;" width="968.0879" x="0" y="111.8633"/><line style="stroke:#000000;stroke-width:1;" x1="0" x2="968.0879" y1="111.8633" y2="111.8633"/><line style="stroke:#000000;stroke-width:1;" x1="0" x2="968.0879" y1="114.8633" y2="114.8633"/><rect fill="#EEEEEE" height="23.1328" style="stroke:#000000;stroke-width:2;" width="168.5273" x="399.7803" y="101.2969"/><text fill="#000000" font-family="sans-serif" font-size="13" font-weight="bold" lengthAdjust="spacing" textLength="150.0015" x="405.7803" y="117.3638">Crear Nuevas Clases</text><polygon fill="#181818" points="505.4556,151.5625,515.4556,155.5625,505.4556,159.5625,509.4556,155.5625" style="stroke:#181818;stroke-width:1;"/><line style="stroke:#181818;stroke-width:1;" x1="49.6021" x2="511.4556" y1="155.5625" y2="155.5625"/><text fill="#000000" font-family="sans-serif" font-size="13" lengthAdjust="spacing" textLength="195.6602" x="56.6021" y="150.4966">Solicita crear una clase nueva</text><polygon fill="#181818" points="60.6021,180.6953,50.6021,184.6953,60.6021,188.6953,56.6021,184.6953" style="stroke:#181818;stroke-width:1;"/><line style="stroke:#181818;stroke-width:1;" x1="54.6021" x2="516.4556" y1="184.6953" y2="184.6953"/><text fill="#000000" font-family="sans-serif" font-size="13" lengthAdjust="spacing" textLength="295.7944" x="66.6021" y="179.6294">Solicita la informacion de toda la clase nueva</text><polygon fill="#181818" points="505.4556,209.8281,515.4556,213.8281,505.4556,217.8281,509.4556,213.8281" style="stroke:#181818;stroke-width:1;"/><line style="stroke:#181818;stroke-width:1;" x1="49.6021" x2="511.4556" y1="213.8281" y2="213.8281"/><text fill="#000000" font-family="sans-serif" font-size="13" lengthAdjust="spacing" textLength="315.0659" x="56.6021" y="208.7622">Rellena y envia la informacion de la nueva clase</text><line style="stroke:#181818;stroke-width:1;" x1="517.4556" x2="559.4556" y1="242.9609" y2="242.9609"/><line style="stroke:#181818;stroke-width:1;" x1="559.4556" x2="559.4556" y1="242.9609" y2="255.9609"/><line style="stroke:#181818;stroke-width:1;" x1="518.4556" x2="559.4556" y1="255.9609" y2="255.9609"/><polygon fill="#181818" points="528.4556,251.9609,518.4556,255.9609,528.4556,259.9609,524.4556,255.9609" style="stroke:#181818;stroke-width:1;"/><text fill="#000000" font-family="sans-serif" font-size="13" lengthAdjust="spacing" textLength="189.9282" x="524.4556" y="237.895">Pregunta si la clase ya existe</text><path d="M10,270.9609 L74.4429,270.9609 L74.4429,278.0938 L64.4429,288.0938 L10,288.0938 L10,270.9609 " fill="#EEEEEE" style="stroke:#000000;stroke-width:1.5;"/><rect fill="none" height="90.2031" style="stroke:#000000;stroke-width:1.5;" width="948.0879" x="10" y="270.9609"/><text fill="#000000" font-family="sans-serif" font-size="13" font-weight="bold" lengthAdjust="spacing" textLength="19.4429" x="25" y="284.0278">alt</text><text fill="#000000" font-family="sans-serif" font-size="11" font-weight="bold" lengthAdjust="spacing" textLength="132.1665" x="89.4429" y="283.1714">[Si la clase ya existe]</text><polygon fill="#181818" points="60.6021,305.2266,50.6021,309.2266,60.6021,313.2266,56.6021,309.2266" style="stroke:#181818;stroke-width:1;"/><line style="stroke:#181818;stroke-width:1;" x1="54.6021" x2="516.4556" y1="309.2266" y2="309.2266"/><text fill="#000000" font-family="sans-serif" font-size="13" lengthAdjust="spacing" textLength="384.3887" x="66.6021" y="304.1606">Manda un mensaje de error diciendo que la clase ya existe</text><line style="stroke:#000000;stroke-width:1;stroke-dasharray:2.0,2.0;" x1="10" x2="958.0879" y1="318.2266" y2="318.2266"/><text fill="#000000" font-family="sans-serif" font-size="11" font-weight="bold" lengthAdjust="spacing" textLength="132.9614" x="15" y="328.437">[Si la clase no existe]</text><polygon fill="#181818" points="881.9917,349.1641,891.9917,353.1641,881.9917,357.1641,885.9917,353.1641" style="stroke:#181818;stroke-width:1;"/><line style="stroke:#181818;stroke-width:1;" x1="517.4556" x2="887.9917" y1="353.1641" y2="353.1641"/><text fill="#000000" font-family="sans-serif" font-size="13" lengthAdjust="spacing" textLength="127.9941" x="524.4556" y="348.0981">Crea la nueva clase</text><polygon fill="#181818" points="528.4556,385.2969,518.4556,389.2969,528.4556,393.2969,524.4556,389.2969" style="stroke:#181818;stroke-width:1;"/><line style="stroke:#181818;stroke-width:1;stroke-dasharray:2.0,2.0;" x1="522.4556" x2="892.9917" y1="389.2969" y2="389.2969"/><text fill="#000000" font-family="sans-serif" font-size="13" lengthAdjust="spacing" textLength="193.2036" x="534.4556" y="384.231">Confirmaci&#243;n de clase creada</text><polygon fill="#181818" points="60.6021,414.4297,50.6021,418.4297,60.6021,422.4297,56.6021,418.4297" style="stroke:#181818;stroke-width:1;"/><line style="stroke:#181818;stroke-width:1;stroke-dasharray:2.0,2.0;" x1="54.6021" x2="516.4556" y1="418.4297" y2="418.4297"/><text fill="#000000" font-family="sans-serif" font-size="13" lengthAdjust="spacing" textLength="148.1924" x="66.6021" y="413.3638">Clase creada con &#233;xito</text><rect fill="#EEEEEE" height="3" style="stroke:#EEEEEE;stroke-width:1;" width="968.0879" x="0" y="446.9961"/><line style="stroke:#000000;stroke-width:1;" x1="0" x2="968.0879" y1="446.9961" y2="446.9961"/><line style="stroke:#000000;stroke-width:1;" x1="0" x2="968.0879" y1="449.9961" y2="449.9961"/><rect fill="#EEEEEE" height="23.1328" style="stroke:#000000;stroke-width:2;" width="228.8936" x="369.5972" y="436.4297"/><text fill="#000000" font-family="sans-serif" font-size="13" font-weight="bold" lengthAdjust="spacing" textLength="210.3677" x="375.5972" y="452.4966">Inscribir Nuevos Estudiantes</text><polygon fill="#181818" points="505.4556,486.6953,515.4556,490.6953,505.4556,494.6953,509.4556,490.6953" style="stroke:#181818;stroke-width:1;"/><line style="stroke:#181818;stroke-width:1;" x1="49.6021" x2="511.4556" y1="490.6953" y2="490.6953"/><text fill="#000000" font-family="sans-serif" font-size="13" lengthAdjust="spacing" textLength="340.5327" x="56.6021" y="485.6294">Solicitud para crear un nuevo registro de estudiante</text><polygon fill="#181818" points="60.6021,515.8281,50.6021,519.8281,60.6021,523.8281,56.6021,519.8281" style="stroke:#181818;stroke-width:1;"/><line style="stroke:#181818;stroke-width:1;" x1="54.6021" x2="516.4556" y1="519.8281" y2="519.8281"/><text fill="#000000" font-family="sans-serif" font-size="13" lengthAdjust="spacing" textLength="358.0205" x="66.6021" y="514.7622">Solicita la informacion del nuevo estudiante a registrar</text><polygon fill="#181818" points="505.4556,544.9609,515.4556,548.9609,505.4556,552.9609,509.4556,548.9609" style="stroke:#181818;stroke-width:1;"/><line style="stroke:#181818;stroke-width:1;" x1="49.6021" x2="511.4556" y1="548.9609" y2="548.9609"/><text fill="#000000" font-family="sans-serif" font-size="13" lengthAdjust="spacing" textLength="338.73" x="56.6021" y="543.895">Rellena y envia la informacion del nuevo estudiante</text><path d="M10,563.9609 L74.4429,563.9609 L74.4429,571.0938 L64.4429,581.0938 L10,581.0938 L10,563.9609 " fill="#EEEEEE" style="stroke:#000000;stroke-width:1.5;"/><rect fill="none" height="90.2031" style="stroke:#000000;stroke-width:1.5;" width="948.0879" x="10" y="563.9609"/><text fill="#000000" font-family="sans-serif" font-size="13" font-weight="bold" lengthAdjust="spacing" textLength="19.4429" x="25" y="577.0278">alt</text><text fill="#000000" font-family="sans-serif" font-size="11" font-weight="bold" lengthAdjust="spacing" textLength="167.1968" x="89.4429" y="576.1714">[Si el estudiante ya existe]</text><polygon fill="#181818" points="60.6021,598.2266,50.6021,602.2266,60.6021,606.2266,56.6021,602.2266" style="stroke:#181818;stroke-width:1;"/><line style="stroke:#181818;stroke-width:1;" x1="54.6021" x2="516.4556" y1="602.2266" y2="602.2266"/><text fill="#000000" font-family="sans-serif" font-size="13" lengthAdjust="spacing" textLength="420.1958" x="66.6021" y="597.1606">Manda un mensaje de error diciendo que el estudiante ya existe</text><line style="stroke:#000000;stroke-width:1;stroke-dasharray:2.0,2.0;" x1="10" x2="958.0879" y1="611.2266" y2="611.2266"/><text fill="#000000" font-family="sans-serif" font-size="11" font-weight="bold" lengthAdjust="spacing" textLength="167.9917" x="15" y="621.437">[Si el estudiante no existe]</text><polygon fill="#181818" points="881.9917,642.1641,891.9917,646.1641,881.9917,650.1641,885.9917,646.1641" style="stroke:#181818;stroke-width:1;"/><line style="stroke:#181818;stroke-width:1;" x1="517.4556" x2="887.9917" y1="646.1641" y2="646.1641"/><text fill="#000000" font-family="sans-serif" font-size="13" lengthAdjust="spacing" textLength="238.6782" x="524.4556" y="641.0981">Crea el nuevo registro de estudiante</text><polygon fill="#181818" points="528.4556,678.2969,518.4556,682.2969,528.4556,686.2969,524.4556,682.2969" style="stroke:#181818;stroke-width:1;"/><line style="stroke:#181818;stroke-width:1;stroke-dasharray:2.0,2.0;" x1="522.4556" x2="892.9917" y1="682.2969" y2="682.2969"/><text fill="#000000" font-family="sans-serif" font-size="13" lengthAdjust="spacing" textLength="232.083" x="534.4556" y="677.231">Confirmaci&#243;n de estudiante inscrito</text><polygon fill="#181818" points="60.6021,707.4297,50.6021,711.4297,60.6021,715.4297,56.6021,711.4297" style="stroke:#181818;stroke-width:1;"/><line style="stroke:#181818;stroke-width:1;stroke-dasharray:2.0,2.0;" x1="54.6021" x2="516.4556" y1="711.4297" y2="711.4297"/><text fill="#000000" font-family="sans-serif" font-size="13" lengthAdjust="spacing" textLength="185.3579" x="66.6021" y="706.3638">Estudiante inscrito con &#233;xito</text><rect fill="#EEEEEE" height="3" style="stroke:#EEEEEE;stroke-width:1;" width="968.0879" x="0" y="739.9961"/><line style="stroke:#000000;stroke-width:1;" x1="0" x2="968.0879" y1="739.9961" y2="739.9961"/><line style="stroke:#000000;stroke-width:1;" x1="0" x2="968.0879" y1="742.9961" y2="742.9961"/><rect fill="#EEEEEE" height="23.1328" style="stroke:#000000;stroke-width:2;" width="244.4771" x="361.8054" y="729.4297"/><text fill="#000000" font-family="sans-serif" font-size="13" font-weight="bold" lengthAdjust="spacing" textLength="225.9512" x="367.8054" y="745.4966">Inscribir Estudiante a Materias</text><polygon fill="#181818" points="505.4556,779.6953,515.4556,783.6953,505.4556,787.6953,509.4556,783.6953" style="stroke:#181818;stroke-width:1;"/><line style="stroke:#181818;stroke-width:1;" x1="49.6021" x2="511.4556" y1="783.6953" y2="783.6953"/><text fill="#000000" font-family="sans-serif" font-size="13" lengthAdjust="spacing" textLength="351.8379" x="56.6021" y="778.6294">Solicitud para inscribirse como estudiante a una clase</text><polygon fill="#181818" points="60.6021,808.8281,50.6021,812.8281,60.6021,816.8281,56.6021,812.8281" style="stroke:#181818;stroke-width:1;"/><line style="stroke:#181818;stroke-width:1;" x1="54.6021" x2="516.4556" y1="812.8281" y2="812.8281"/><text fill="#000000" font-family="sans-serif" font-size="13" lengthAdjust="spacing" textLength="257.8735" x="66.6021" y="807.7622">Pregunta a que clase se quiere inscribir</text><polygon fill="#181818" points="505.4556,837.9609,515.4556,841.9609,505.4556,845.9609,509.4556,841.9609" style="stroke:#181818;stroke-width:1;"/><line style="stroke:#181818;stroke-width:1;" x1="49.6021" x2="511.4556" y1="841.9609" y2="841.9609"/><text fill="#000000" font-family="sans-serif" font-size="13" lengthAdjust="spacing" textLength="175.9126" x="56.6021" y="836.895">el usuario le indica la clase</text><polygon fill="#181818" points="881.9917,867.0938,891.9917,871.0938,881.9917,875.0938,885.9917,871.0938" style="stroke:#181818;stroke-width:1;"/><line style="stroke:#181818;stroke-width:1;" x1="517.4556" x2="887.9917" y1="871.0938" y2="871.0938"/><text fill="#000000" font-family="sans-serif" font-size="13" lengthAdjust="spacing" textLength="206.8765" x="524.4556" y="866.0278">Verificar disponibilidad en clase</text><path d="M10,886.0938 L74.4429,886.0938 L74.4429,893.2266 L64.4429,903.2266 L10,903.2266 L10,886.0938 " fill="#EEEEEE" style="stroke:#000000;stroke-width:1.5;"/><rect fill="none" height="119.3359" style="stroke:#000000;stroke-width:1.5;" width="948.0879" x="10" y="886.0938"/><text fill="#000000" font-family="sans-serif" font-size="13" font-weight="bold" lengthAdjust="spacing" textLength="19.4429" x="25" y="899.1606">alt</text><text fill="#000000" font-family="sans-serif" font-size="11" font-weight="bold" lengthAdjust="spacing" textLength="118.2017" x="89.4429" y="898.3042">[Si no hay espacio]</text><polygon fill="#181818" points="60.6021,920.3594,50.6021,924.3594,60.6021,928.3594,56.6021,924.3594" style="stroke:#181818;stroke-width:1;"/><line style="stroke:#181818;stroke-width:1;" x1="54.6021" x2="516.4556" y1="924.3594" y2="924.3594"/><text fill="#000000" font-family="sans-serif" font-size="13" lengthAdjust="spacing" textLength="443.8535" x="66.6021" y="919.2935">Manda un mensaje de error diciendo que no hay espacio en la clase</text><line style="stroke:#000000;stroke-width:1;stroke-dasharray:2.0,2.0;" x1="10" x2="958.0879" y1="933.3594" y2="933.3594"/><text fill="#000000" font-family="sans-serif" font-size="11" font-weight="bold" lengthAdjust="spacing" textLength="98.9839" x="15" y="943.5698">[Si hay espacio]</text><polygon fill="#181818" points="528.4556,964.2969,518.4556,968.2969,528.4556,972.2969,524.4556,968.2969" style="stroke:#181818;stroke-width:1;"/><line style="stroke:#181818;stroke-width:1;stroke-dasharray:2.0,2.0;" x1="522.4556" x2="892.9917" y1="968.2969" y2="968.2969"/><text fill="#000000" font-family="sans-serif" font-size="13" lengthAdjust="spacing" textLength="169.8633" x="534.4556" y="963.231">Disponibilidad confirmada</text><polygon fill="#181818" points="881.9917,993.4297,891.9917,997.4297,881.9917,1001.4297,885.9917,997.4297" style="stroke:#181818;stroke-width:1;"/><line style="stroke:#181818;stroke-width:1;" x1="517.4556" x2="887.9917" y1="997.4297" y2="997.4297"/><text fill="#000000" font-family="sans-serif" font-size="13" lengthAdjust="spacing" textLength="238.6782" x="524.4556" y="992.3638">Crea el nuevo registro de estudiante</text><polygon fill="#181818" points="528.4556,1029.5625,518.4556,1033.5625,528.4556,1037.5625,524.4556,1033.5625" style="stroke:#181818;stroke-width:1;"/><line style="stroke:#181818;stroke-width:1;stroke-dasharray:2.0,2.0;" x1="522.4556" x2="892.9917" y1="1033.5625" y2="1033.5625"/><text fill="#000000" font-family="sans-serif" font-size="13" lengthAdjust="spacing" textLength="180.832" x="534.4556" y="1028.4966">Confirmaci&#243;n de inscripci&#243;n</text><line style="stroke:#181818;stroke-width:1;stroke-dasharray:2.0,2.0;" x1="517.4556" x2="559.4556" y1="1062.6953" y2="1062.6953"/><line style="stroke:#181818;stroke-width:1;stroke-dasharray:2.0,2.0;" x1="559.4556" x2="559.4556" y1="1062.6953" y2="1075.6953"/><line style="stroke:#181818;stroke-width:1;stroke-dasharray:2.0,2.0;" x1="518.4556" x2="559.4556" y1="1075.6953" y2="1075.6953"/><polygon fill="#181818" points="528.4556,1071.6953,518.4556,1075.6953,528.4556,1079.6953,524.4556,1075.6953" style="stroke:#181818;stroke-width:1;"/><text fill="#000000" font-family="sans-serif" font-size="13" lengthAdjust="spacing" textLength="270.5942" x="524.4556" y="1057.6294">Envia una notificacion a los observadores</text><polygon fill="#181818" points="60.6021,1100.8281,50.6021,1104.8281,60.6021,1108.8281,56.6021,1104.8281" style="stroke:#181818;stroke-width:1;"/><line style="stroke:#181818;stroke-width:1;stroke-dasharray:2.0,2.0;" x1="54.6021" x2="516.4556" y1="1104.8281" y2="1104.8281"/><text fill="#000000" font-family="sans-serif" font-size="13" lengthAdjust="spacing" textLength="260.5078" x="66.6021" y="1099.7622">Estudiante inscrito en materia con &#233;xito</text><rect fill="#EEEEEE" height="3" style="stroke:#EEEEEE;stroke-width:1;" width="968.0879" x="0" y="1133.3945"/><line style="stroke:#000000;stroke-width:1;" x1="0" x2="968.0879" y1="1133.3945" y2="1133.3945"/><line style="stroke:#000000;stroke-width:1;" x1="0" x2="968.0879" y1="1136.3945" y2="1136.3945"/><rect fill="#EEEEEE" height="23.1328" style="stroke:#000000;stroke-width:2;" width="180.1118" x="393.988" y="1122.8281"/><text fill="#000000" font-family="sans-serif" font-size="13" font-weight="bold" lengthAdjust="spacing" textLength="161.5859" x="399.988" y="1138.895">Resumen Consolidado</text><polygon fill="#181818" points="505.4556,1173.0938,515.4556,1177.0938,505.4556,1181.0938,509.4556,1177.0938" style="stroke:#181818;stroke-width:1;"/><line style="stroke:#181818;stroke-width:1;" x1="49.6021" x2="511.4556" y1="1177.0938" y2="1177.0938"/><text fill="#000000" font-family="sans-serif" font-size="13" lengthAdjust="spacing" textLength="309.4292" x="56.6021" y="1172.0278">Pide un consolidado de las clases y estudiantes</text><polygon fill="#181818" points="881.9917,1202.2266,891.9917,1206.2266,881.9917,1210.2266,885.9917,1206.2266" style="stroke:#181818;stroke-width:1;"/><line style="stroke:#181818;stroke-width:1;" x1="517.4556" x2="887.9917" y1="1206.2266" y2="1206.2266"/><text fill="#000000" font-family="sans-serif" font-size="13" lengthAdjust="spacing" textLength="352.5361" x="524.4556" y="1201.1606">Consultar datos de clases, estudiantes e inscripciones</text><polygon fill="#181818" points="528.4556,1231.3594,518.4556,1235.3594,528.4556,1239.3594,524.4556,1235.3594" style="stroke:#181818;stroke-width:1;"/><line style="stroke:#181818;stroke-width:1;stroke-dasharray:2.0,2.0;" x1="522.4556" x2="892.9917" y1="1235.3594" y2="1235.3594"/><text fill="#000000" font-family="sans-serif" font-size="13" lengthAdjust="spacing" textLength="126.4199" x="534.4556" y="1230.2935">Datos consolidados</text><polygon fill="#181818" points="60.6021,1260.4922,50.6021,1264.4922,60.6021,1268.4922,56.6021,1264.4922" style="stroke:#181818;stroke-width:1;"/><line style="stroke:#181818;stroke-width:1;stroke-dasharray:2.0,2.0;" x1="54.6021" x2="516.4556" y1="1264.4922" y2="1264.4922"/><text fill="#000000" font-family="sans-serif" font-size="13" lengthAdjust="spacing" textLength="192.9307" x="66.6021" y="1259.4263">Mostrar resumen consolidado</text><!--SRC=[lPLBRjim48RtEiKSeBb007THsuikN0G9slr47BSiA8x2Xv4SAUiS8HVha7fHZeGwRL702vkQ-UVnVwAn3kpWgu_eD5Sjkg1htQ8DSATze0PdPv_Gquvs6DXNrMO3MqVeu4ka4thO6ddgOREfUZcu-ZYeNCCT6r4927NEYLQ-fGImARlgur9Adrsa60HjZ-mQh3LRK0I1LJuk9PQgtf8n9AMUWEn9Bod9IKxlfCe-Hf4RHz-ZbJwydce-8T1ZYgZGf6KjFLaQwe1MMeyM6h8UVrBgWPmJ4vGCIrOnF4HQKYCZFyj2bXSA5HPTPt_E9vGILLL4mLKvwvRjKUVrlBxa_NIbaccgSAcSQ5j4G2rRVNr-r84p89-jhvs-rnqaKcplGrHQMFejAL61e3VnaeTW42yaq77UsoZsJdvCBpO900xAwFwCfBUQrO26F2ig_HC-rYG7IERFBoHbd65boUz4fsX0Pmu4YaM2zcy3rq7QbvuTC93JU2bBUb19m79p1i1u9oqQCzu2c0tetWlvF4HDZYRfnJvaix4_DYbMl9pkhshLbMyot552a_c-PIlwHYjKmc2VsXCc1lz0GTEt2SU_0Mkkb0gDRGvibPLMQTZD6wvxE1J-LmGxLzhyUyRUcBBFRtEotdB8oyxlixWZudploPrGiID_ERgoiwRZyfpYM_9Hrf_wz9mNmslatcXfNzogYz3yT-KxDtowYQRBT7shaXzDI0ZbVGrNklzGfaEnAhOYj-vhFYgwMbdCWVDTAZvs8nSPlm00]--></g></svg>