<svg xmlns="http://www.w3.org/2000/svg" xmlns:xlink="http://www.w3.org/1999/xlink" contentStyleType="text/css" height="1101px" preserveAspectRatio="none" style="width:2067px;height:1101px;background:#FFFFFF;" version="1.1" viewBox="0 0 2067 1101" width="2067px" zoomAndPan="magnify"><defs/><g><!--cluster Interfaces--><g id="cluster_Interfaces"><path d="M144.5,152.29 L225.4326,152.29 A3.75,3.75 0 0 1 227.9326,154.79 L234.9326,174.5869 L765.5,174.5869 A2.5,2.5 0 0 1 768,177.0869 L768,395.46 A2.5,2.5 0 0 1 765.5,397.96 L144.5,397.96 A2.5,2.5 0 0 1 142,395.46 L142,154.79 A2.5,2.5 0 0 1 144.5,152.29 " fill="none" style="stroke:#000000;stroke-width:1.5;"/><line style="stroke:#000000;stroke-width:1.5;" x1="142" x2="234.9326" y1="174.5869" y2="174.5869"/><text fill="#000000" font-family="sans-serif" font-size="14" font-weight="bold" lengthAdjust="spacing" textLength="79.9326" x="146" y="167.2851">Interfaces</text></g><!--cluster Modelos--><g id="cluster_Modelos"><path d="M326.5,430.96 L393.3164,430.96 A3.75,3.75 0 0 1 395.8164,433.46 L402.8164,453.2569 L1489.5,453.2569 A2.5,2.5 0 0 1 1492,455.7569 L1492,1092.48 A2.5,2.5 0 0 1 1489.5,1094.98 L326.5,1094.98 A2.5,2.5 0 0 1 324,1092.48 L324,433.46 A2.5,2.5 0 0 1 326.5,430.96 " fill="none" style="stroke:#000000;stroke-width:1.5;"/><line style="stroke:#000000;stroke-width:1.5;" x1="324" x2="402.8164" y1="453.2569" y2="453.2569"/><text fill="#000000" font-family="sans-serif" font-size="14" font-weight="bold" lengthAdjust="spacing" textLength="65.8164" x="328" y="445.9551">Modelos</text></g><!--cluster Observadores--><g id="cluster_Observadores"><path d="M8.5,553.19 L119.1006,553.19 A3.75,3.75 0 0 1 121.6006,555.69 L128.6006,575.4869 L247.5,575.4869 A2.5,2.5 0 0 1 250,577.9869 L250,665.99 A2.5,2.5 0 0 1 247.5,668.49 L8.5,668.49 A2.5,2.5 0 0 1 6,665.99 L6,555.69 A2.5,2.5 0 0 1 8.5,553.19 " fill="none" style="stroke:#000000;stroke-width:1.5;"/><line style="stroke:#000000;stroke-width:1.5;" x1="6" x2="128.6006" y1="575.4869" y2="575.4869"/><text fill="#000000" font-family="sans-serif" font-size="14" font-weight="bold" lengthAdjust="spacing" textLength="109.6006" x="10" y="568.1851">Observadores</text></g><!--cluster Ventanas--><g id="cluster_Ventanas"><path d="M794.5,6 L869.6836,6 A3.75,3.75 0 0 1 872.1836,8.5 L879.1836,28.2969 L2057.5,28.2969 A2.5,2.5 0 0 1 2060,30.7969 L2060,330.28 A2.5,2.5 0 0 1 2057.5,332.78 L794.5,332.78 A2.5,2.5 0 0 1 792,330.28 L792,8.5 A2.5,2.5 0 0 1 794.5,6 " fill="none" style="stroke:#000000;stroke-width:1.5;"/><line style="stroke:#000000;stroke-width:1.5;" x1="792" x2="879.1836" y1="28.2969" y2="28.2969"/><text fill="#000000" font-family="sans-serif" font-size="14" font-weight="bold" lengthAdjust="spacing" textLength="74.1836" x="796" y="20.9951">Ventanas</text></g><!--class IMateria--><g id="elem_IMateria"><rect codeLine="6" fill="#F1F1F1" height="194.6719" id="IMateria" rx="2.5" ry="2.5" style="stroke:#181818;stroke-width:0.5;" width="347.2002" x="404.4" y="187.29"/><ellipse cx="545.193" cy="203.29" fill="#B4A7E5" rx="11" ry="11" style="stroke:#181818;stroke-width:1;"/><path d="M541.1148,199.0556 L541.1148,196.8994 L548.5055,196.8994 L548.5055,199.0556 L546.0367,199.0556 L546.0367,207.1337 L548.5055,207.1337 L548.5055,209.29 L541.1148,209.29 L541.1148,207.1337 L543.5836,207.1337 L543.5836,199.0556 L541.1148,199.0556 Z " fill="#000000"/><text fill="#000000" font-family="sans-serif" font-size="14" font-style="italic" lengthAdjust="spacing" textLength="57.1143" x="565.693" y="208.1367">IMateria</text><line style="stroke:#181818;stroke-width:0.5;" x1="405.4" x2="750.6002" y1="219.29" y2="219.29"/><line style="stroke:#181818;stroke-width:0.5;" x1="405.4" x2="750.6002" y1="227.29" y2="227.29"/><ellipse cx="415.4" cy="240.9384" fill="#84BE84" rx="3" ry="3" style="stroke:#038048;stroke-width:1;"/><text fill="#000000" font-family="sans-serif" font-size="14" lengthAdjust="spacing" textLength="220.7393" x="424.4" y="244.2851">inscribir(Estudiante estudiante)</text><ellipse cx="415.4" cy="257.2353" fill="#84BE84" rx="3" ry="3" style="stroke:#038048;stroke-width:1;"/><text fill="#000000" font-family="sans-serif" font-size="14" lengthAdjust="spacing" textLength="317.0303" x="424.4" y="260.582">agregarObservador(IObservador observador)</text><ellipse cx="415.4" cy="273.5322" fill="#84BE84" rx="3" ry="3" style="stroke:#038048;stroke-width:1;"/><text fill="#000000" font-family="sans-serif" font-size="14" lengthAdjust="spacing" textLength="321.2002" x="424.4" y="276.8789">removerObservador(IObservador observador)</text><ellipse cx="415.4" cy="289.8291" fill="#84BE84" rx="3" ry="3" style="stroke:#038048;stroke-width:1;"/><text fill="#000000" font-family="sans-serif" font-size="14" lengthAdjust="spacing" textLength="271.8721" x="424.4" y="293.1757">notificarObservadores(String mensaje)</text><ellipse cx="415.4" cy="306.1259" fill="#84BE84" rx="3" ry="3" style="stroke:#038048;stroke-width:1;"/><text fill="#000000" font-family="sans-serif" font-size="14" lengthAdjust="spacing" textLength="140.793" x="424.4" y="309.4726">getNombre(): String</text><ellipse cx="415.4" cy="322.4228" fill="#84BE84" rx="3" ry="3" style="stroke:#038048;stroke-width:1;"/><text fill="#000000" font-family="sans-serif" font-size="14" lengthAdjust="spacing" textLength="133.4307" x="424.4" y="325.7695">getCodigo(): String</text><ellipse cx="415.4" cy="338.7197" fill="#84BE84" rx="3" ry="3" style="stroke:#038048;stroke-width:1;"/><text fill="#000000" font-family="sans-serif" font-size="14" lengthAdjust="spacing" textLength="136.5" x="424.4" y="342.0664">getHorario(): String</text><ellipse cx="415.4" cy="355.0166" fill="#84BE84" rx="3" ry="3" style="stroke:#038048;stroke-width:1;"/><text fill="#000000" font-family="sans-serif" font-size="14" lengthAdjust="spacing" textLength="97.4326" x="424.4" y="358.3632">getCupo(): int</text><ellipse cx="415.4" cy="371.3134" fill="#84BE84" rx="3" ry="3" style="stroke:#038048;stroke-width:1;"/><text fill="#000000" font-family="sans-serif" font-size="14" lengthAdjust="spacing" textLength="306.9609" x="424.4" y="374.6601">getEstudiantesInscritos(): List&lt;Estudiante&gt;</text></g><!--class IObservador--><g id="elem_IObservador"><rect codeLine="18" fill="#F1F1F1" height="64.2969" id="IObservador" rx="2.5" ry="2.5" style="stroke:#181818;stroke-width:0.5;" width="211.3359" x="158.33" y="252.48"/><ellipse cx="216.8627" cy="268.48" fill="#B4A7E5" rx="11" ry="11" style="stroke:#181818;stroke-width:1;"/><path d="M212.7846,264.2456 L212.7846,262.0894 L220.1752,262.0894 L220.1752,264.2456 L217.7065,264.2456 L217.7065,272.3238 L220.1752,272.3238 L220.1752,274.48 L212.7846,274.48 L212.7846,272.3238 L215.2533,272.3238 L215.2533,264.2456 L212.7846,264.2456 Z " fill="#000000"/><text fill="#000000" font-family="sans-serif" font-size="14" font-style="italic" lengthAdjust="spacing" textLength="85.7705" x="237.3627" y="273.3267">IObservador</text><line style="stroke:#181818;stroke-width:0.5;" x1="159.33" x2="368.6659" y1="284.48" y2="284.48"/><line style="stroke:#181818;stroke-width:0.5;" x1="159.33" x2="368.6659" y1="292.48" y2="292.48"/><ellipse cx="169.33" cy="306.1284" fill="#84BE84" rx="3" ry="3" style="stroke:#038048;stroke-width:1;"/><text fill="#000000" font-family="sans-serif" font-size="14" lengthAdjust="spacing" textLength="185.3359" x="178.33" y="309.4751">actualizar(String mensaje)</text></g><!--class Materia--><g id="elem_Materia"><rect codeLine="25" fill="#F1F1F1" height="308.75" id="Materia" rx="2.5" ry="2.5" style="stroke:#181818;stroke-width:0.5;" width="347.2002" x="340.4" y="465.96"/><ellipse cx="483.2574" cy="481.96" fill="#ADD1B2" rx="11" ry="11" style="stroke:#181818;stroke-width:1;"/><path d="M486.2262,487.6006 Q485.648,487.8975 485.0074,488.0381 Q484.3668,488.1944 483.6637,488.1944 Q481.1637,488.1944 479.8355,486.5538 Q478.523,484.8975 478.523,481.7725 Q478.523,478.6475 479.8355,476.9913 Q481.1637,475.335 483.6637,475.335 Q484.3668,475.335 485.0074,475.4913 Q485.6637,475.6475 486.2262,475.9444 L486.2262,478.6631 Q485.6012,478.085 485.0074,477.8194 Q484.4137,477.5381 483.7887,477.5381 Q482.4449,477.5381 481.7574,478.6163 Q481.0699,479.6788 481.0699,481.7725 Q481.0699,483.8663 481.7574,484.9444 Q482.4449,486.0069 483.7887,486.0069 Q484.4137,486.0069 485.0074,485.7413 Q485.6012,485.46 486.2262,484.8819 L486.2262,487.6006 Z " fill="#000000"/><text fill="#000000" font-family="sans-serif" font-size="14" lengthAdjust="spacing" textLength="52.9854" x="503.7574" y="486.8067">Materia</text><line style="stroke:#181818;stroke-width:0.5;" x1="341.4" x2="686.6002" y1="497.96" y2="497.96"/><rect fill="none" height="6" style="stroke:#C82930;stroke-width:1;" width="6" x="348.4" y="508.6084"/><text fill="#000000" font-family="sans-serif" font-size="14" lengthAdjust="spacing" textLength="100.5635" x="360.4" y="514.9551">String nombre</text><rect fill="none" height="6" style="stroke:#C82930;stroke-width:1;" width="6" x="348.4" y="524.9053"/><text fill="#000000" font-family="sans-serif" font-size="14" lengthAdjust="spacing" textLength="92.7227" x="360.4" y="531.252">String codigo</text><rect fill="none" height="6" style="stroke:#C82930;stroke-width:1;" width="6" x="348.4" y="541.2022"/><text fill="#000000" font-family="sans-serif" font-size="14" lengthAdjust="spacing" textLength="96.2158" x="360.4" y="547.5489">String horario</text><rect fill="none" height="6" style="stroke:#C82930;stroke-width:1;" width="6" x="348.4" y="557.4991"/><text fill="#000000" font-family="sans-serif" font-size="14" lengthAdjust="spacing" textLength="56.7246" x="360.4" y="563.8457">int cupo</text><rect fill="none" height="6" style="stroke:#C82930;stroke-width:1;" width="6" x="348.4" y="573.7959"/><text fill="#000000" font-family="sans-serif" font-size="14" lengthAdjust="spacing" textLength="233.249" x="360.4" y="580.1426">List&lt;IObservador&gt; observadores</text><rect fill="none" height="6" style="stroke:#C82930;stroke-width:1;" width="6" x="348.4" y="590.0928"/><text fill="#000000" font-family="sans-serif" font-size="14" lengthAdjust="spacing" textLength="268.0986" x="360.4" y="596.4395">List&lt;Estudiante&gt; estudiantesInscritos</text><line style="stroke:#181818;stroke-width:0.5;" x1="341.4" x2="686.6002" y1="603.7413" y2="603.7413"/><ellipse cx="351.4" cy="617.3897" fill="#84BE84" rx="3" ry="3" style="stroke:#038048;stroke-width:1;"/><text fill="#000000" font-family="sans-serif" font-size="14" lengthAdjust="spacing" textLength="220.7393" x="360.4" y="620.7364">inscribir(Estudiante estudiante)</text><ellipse cx="351.4" cy="633.6866" fill="#84BE84" rx="3" ry="3" style="stroke:#038048;stroke-width:1;"/><text fill="#000000" font-family="sans-serif" font-size="14" lengthAdjust="spacing" textLength="317.0303" x="360.4" y="637.0332">agregarObservador(IObservador observador)</text><ellipse cx="351.4" cy="649.9834" fill="#84BE84" rx="3" ry="3" style="stroke:#038048;stroke-width:1;"/><text fill="#000000" font-family="sans-serif" font-size="14" lengthAdjust="spacing" textLength="321.2002" x="360.4" y="653.3301">removerObservador(IObservador observador)</text><ellipse cx="351.4" cy="666.2803" fill="#84BE84" rx="3" ry="3" style="stroke:#038048;stroke-width:1;"/><text fill="#000000" font-family="sans-serif" font-size="14" lengthAdjust="spacing" textLength="271.8721" x="360.4" y="669.627">notificarObservadores(String mensaje)</text><ellipse cx="351.4" cy="682.5772" fill="#84BE84" rx="3" ry="3" style="stroke:#038048;stroke-width:1;"/><text fill="#000000" font-family="sans-serif" font-size="14" lengthAdjust="spacing" textLength="92.3945" x="360.4" y="685.9239">liberarCupo()</text><ellipse cx="351.4" cy="698.8741" fill="#84BE84" rx="3" ry="3" style="stroke:#038048;stroke-width:1;"/><text fill="#000000" font-family="sans-serif" font-size="14" lengthAdjust="spacing" textLength="140.793" x="360.4" y="702.2207">getNombre(): String</text><ellipse cx="351.4" cy="715.1709" fill="#84BE84" rx="3" ry="3" style="stroke:#038048;stroke-width:1;"/><text fill="#000000" font-family="sans-serif" font-size="14" lengthAdjust="spacing" textLength="133.4307" x="360.4" y="718.5176">getCodigo(): String</text><ellipse cx="351.4" cy="731.4678" fill="#84BE84" rx="3" ry="3" style="stroke:#038048;stroke-width:1;"/><text fill="#000000" font-family="sans-serif" font-size="14" lengthAdjust="spacing" textLength="136.5" x="360.4" y="734.8145">getHorario(): String</text><ellipse cx="351.4" cy="747.7647" fill="#84BE84" rx="3" ry="3" style="stroke:#038048;stroke-width:1;"/><text fill="#000000" font-family="sans-serif" font-size="14" lengthAdjust="spacing" textLength="97.4326" x="360.4" y="751.1114">getCupo(): int</text><ellipse cx="351.4" cy="764.0616" fill="#84BE84" rx="3" ry="3" style="stroke:#038048;stroke-width:1;"/><text fill="#000000" font-family="sans-serif" font-size="14" lengthAdjust="spacing" textLength="306.9609" x="360.4" y="767.4082">getEstudiantesInscritos(): List&lt;Estudiante&gt;</text></g><!--class MateriaDecorador--><g id="elem_MateriaDecorador"><rect codeLine="44" fill="#F1F1F1" height="210.9688" id="MateriaDecorador" rx="2.5" ry="2.5" style="stroke:#181818;stroke-width:0.5;" width="347.2002" x="722.4" y="514.86"/><ellipse cx="828.6578" cy="530.86" fill="#A9DCDF" rx="11" ry="11" style="stroke:#181818;stroke-width:1;"/><path d="M828.7672,526.2038 L827.6109,531.2819 L829.9391,531.2819 L828.7672,526.2038 Z M827.2828,523.9694 L830.2672,523.9694 L833.6266,536.36 L831.1734,536.36 L830.4078,533.2975 L827.1266,533.2975 L826.3766,536.36 L823.9391,536.36 L827.2828,523.9694 Z " fill="#000000"/><text fill="#000000" font-family="sans-serif" font-size="14" font-style="italic" lengthAdjust="spacing" textLength="126.1846" x="849.1578" y="535.7067">MateriaDecorador</text><line style="stroke:#181818;stroke-width:0.5;" x1="723.4" x2="1068.6002" y1="546.86" y2="546.86"/><rect fill="none" height="6" style="stroke:#C82930;stroke-width:1;" width="6" x="730.4" y="557.5084"/><text fill="#000000" font-family="sans-serif" font-size="14" lengthAdjust="spacing" textLength="116.1084" x="742.4" y="563.8551">IMateria materia</text><line style="stroke:#181818;stroke-width:0.5;" x1="723.4" x2="1068.6002" y1="571.1569" y2="571.1569"/><ellipse cx="733.4" cy="584.8053" fill="#84BE84" rx="3" ry="3" style="stroke:#038048;stroke-width:1;"/><text fill="#000000" font-family="sans-serif" font-size="14" lengthAdjust="spacing" textLength="220.7393" x="742.4" y="588.152">inscribir(Estudiante estudiante)</text><ellipse cx="733.4" cy="601.1022" fill="#84BE84" rx="3" ry="3" style="stroke:#038048;stroke-width:1;"/><text fill="#000000" font-family="sans-serif" font-size="14" lengthAdjust="spacing" textLength="140.793" x="742.4" y="604.4489">getNombre(): String</text><ellipse cx="733.4" cy="617.3991" fill="#84BE84" rx="3" ry="3" style="stroke:#038048;stroke-width:1;"/><text fill="#000000" font-family="sans-serif" font-size="14" lengthAdjust="spacing" textLength="133.4307" x="742.4" y="620.7457">getCodigo(): String</text><ellipse cx="733.4" cy="633.6959" fill="#84BE84" rx="3" ry="3" style="stroke:#038048;stroke-width:1;"/><text fill="#000000" font-family="sans-serif" font-size="14" lengthAdjust="spacing" textLength="136.5" x="742.4" y="637.0426">getHorario(): String</text><ellipse cx="733.4" cy="649.9928" fill="#84BE84" rx="3" ry="3" style="stroke:#038048;stroke-width:1;"/><text fill="#000000" font-family="sans-serif" font-size="14" lengthAdjust="spacing" textLength="97.4326" x="742.4" y="653.3395">getCupo(): int</text><ellipse cx="733.4" cy="666.2897" fill="#84BE84" rx="3" ry="3" style="stroke:#038048;stroke-width:1;"/><text fill="#000000" font-family="sans-serif" font-size="14" lengthAdjust="spacing" textLength="317.0303" x="742.4" y="669.6364">agregarObservador(IObservador observador)</text><ellipse cx="733.4" cy="682.5866" fill="#84BE84" rx="3" ry="3" style="stroke:#038048;stroke-width:1;"/><text fill="#000000" font-family="sans-serif" font-size="14" lengthAdjust="spacing" textLength="321.2002" x="742.4" y="685.9332">removerObservador(IObservador observador)</text><ellipse cx="733.4" cy="698.8834" fill="#84BE84" rx="3" ry="3" style="stroke:#038048;stroke-width:1;"/><text fill="#000000" font-family="sans-serif" font-size="14" lengthAdjust="spacing" textLength="271.8721" x="742.4" y="702.2301">notificarObservadores(String mensaje)</text><ellipse cx="733.4" cy="715.1803" fill="#84BE84" rx="3" ry="3" style="stroke:#038048;stroke-width:1;"/><text fill="#000000" font-family="sans-serif" font-size="14" lengthAdjust="spacing" textLength="306.9609" x="742.4" y="718.527">getEstudiantesInscritos(): List&lt;Estudiante&gt;</text></g><!--class MateriaConPrerequisito--><g id="elem_MateriaConPrerequisito"><rect codeLine="57" fill="#F1F1F1" height="113.1875" id="MateriaConPrerequisito" rx="2.5" ry="2.5" style="stroke:#181818;stroke-width:0.5;" width="299.9775" x="746.01" y="908.75"/><ellipse cx="809.615" cy="924.75" fill="#ADD1B2" rx="11" ry="11" style="stroke:#181818;stroke-width:1;"/><path d="M812.5837,930.3906 Q812.0056,930.6875 811.365,930.8281 Q810.7244,930.9844 810.0212,930.9844 Q807.5212,930.9844 806.1931,929.3438 Q804.8806,927.6875 804.8806,924.5625 Q804.8806,921.4375 806.1931,919.7813 Q807.5212,918.125 810.0212,918.125 Q810.7244,918.125 811.365,918.2813 Q812.0212,918.4375 812.5837,918.7344 L812.5837,921.4531 Q811.9587,920.875 811.365,920.6094 Q810.7712,920.3281 810.1462,920.3281 Q808.8025,920.3281 808.115,921.4063 Q807.4275,922.4688 807.4275,924.5625 Q807.4275,926.6563 808.115,927.7344 Q808.8025,928.7969 810.1462,928.7969 Q810.7712,928.7969 811.365,928.5313 Q811.9587,928.25 812.5837,927.6719 L812.5837,930.3906 Z " fill="#000000"/><text fill="#000000" font-family="sans-serif" font-size="14" lengthAdjust="spacing" textLength="164.2676" x="830.115" y="929.5967">MateriaConPrerequisito</text><line style="stroke:#181818;stroke-width:0.5;" x1="747.01" x2="1044.9875" y1="940.75" y2="940.75"/><rect fill="none" height="6" style="stroke:#C82930;stroke-width:1;" width="6" x="754.01" y="951.3984"/><text fill="#000000" font-family="sans-serif" font-size="14" lengthAdjust="spacing" textLength="151.833" x="766.01" y="957.7451">IMateria prerrequisito</text><line style="stroke:#181818;stroke-width:0.5;" x1="747.01" x2="1044.9875" y1="965.0469" y2="965.0469"/><ellipse cx="757.01" cy="978.6953" fill="#84BE84" rx="3" ry="3" style="stroke:#038048;stroke-width:1;"/><text fill="#000000" font-family="sans-serif" font-size="14" lengthAdjust="spacing" textLength="220.7393" x="766.01" y="982.042">inscribir(Estudiante estudiante)</text><ellipse cx="757.01" cy="994.9922" fill="#84BE84" rx="3" ry="3" style="stroke:#038048;stroke-width:1;"/><text fill="#000000" font-family="sans-serif" font-size="14" lengthAdjust="spacing" textLength="273.9775" x="766.01" y="998.3389">setPrerrequisito(IMateria prerrequisito)</text><ellipse cx="757.01" cy="1011.2891" fill="#84BE84" rx="3" ry="3" style="stroke:#038048;stroke-width:1;"/><text fill="#000000" font-family="sans-serif" font-size="14" lengthAdjust="spacing" textLength="190.0186" x="766.01" y="1014.6357">getPrerrequisito(): IMateria</text></g><!--class Estudiante--><g id="elem_Estudiante"><rect codeLine="64" fill="#F1F1F1" height="227.2656" id="Estudiante" rx="2.5" ry="2.5" style="stroke:#181818;stroke-width:0.5;" width="287.7959" x="382.1" y="851.71"/><ellipse cx="484.3314" cy="867.71" fill="#ADD1B2" rx="11" ry="11" style="stroke:#181818;stroke-width:1;"/><path d="M487.3002,873.3506 Q486.7221,873.6475 486.0814,873.7881 Q485.4408,873.9444 484.7377,873.9444 Q482.2377,873.9444 480.9096,872.3038 Q479.5971,870.6475 479.5971,867.5225 Q479.5971,864.3975 480.9096,862.7413 Q482.2377,861.085 484.7377,861.085 Q485.4408,861.085 486.0814,861.2413 Q486.7377,861.3975 487.3002,861.6944 L487.3002,864.4131 Q486.6752,863.835 486.0814,863.5694 Q485.4877,863.2881 484.8627,863.2881 Q483.5189,863.2881 482.8314,864.3663 Q482.1439,865.4288 482.1439,867.5225 Q482.1439,869.6163 482.8314,870.6944 Q483.5189,871.7569 484.8627,871.7569 Q485.4877,871.7569 486.0814,871.4913 Q486.6752,871.21 487.3002,870.6319 L487.3002,873.3506 Z " fill="#000000"/><text fill="#000000" font-family="sans-serif" font-size="14" lengthAdjust="spacing" textLength="74.833" x="504.8314" y="872.5567">Estudiante</text><line style="stroke:#181818;stroke-width:0.5;" x1="383.1" x2="668.8959" y1="883.71" y2="883.71"/><rect fill="none" height="6" style="stroke:#C82930;stroke-width:1;" width="6" x="390.1" y="894.3584"/><text fill="#000000" font-family="sans-serif" font-size="14" lengthAdjust="spacing" textLength="100.5635" x="402.1" y="900.7051">String nombre</text><rect fill="none" height="6" style="stroke:#C82930;stroke-width:1;" width="6" x="390.1" y="910.6553"/><text fill="#000000" font-family="sans-serif" font-size="14" lengthAdjust="spacing" textLength="59.0078" x="402.1" y="917.002">String id</text><rect fill="none" height="6" style="stroke:#C82930;stroke-width:1;" width="6" x="390.1" y="926.9522"/><text fill="#000000" font-family="sans-serif" font-size="14" lengthAdjust="spacing" textLength="84.8408" x="402.1" y="933.2989">String email</text><rect fill="none" height="6" style="stroke:#C82930;stroke-width:1;" width="6" x="390.1" y="943.2491"/><text fill="#000000" font-family="sans-serif" font-size="14" lengthAdjust="spacing" textLength="224.7246" x="402.1" y="949.5957">Set&lt;Materia&gt; materiasInscritas</text><line style="stroke:#181818;stroke-width:0.5;" x1="383.1" x2="668.8959" y1="956.8975" y2="956.8975"/><ellipse cx="393.1" cy="970.5459" fill="#84BE84" rx="3" ry="3" style="stroke:#038048;stroke-width:1;"/><text fill="#000000" font-family="sans-serif" font-size="14" lengthAdjust="spacing" textLength="231.8203" x="402.1" y="973.8926">inscribirMateria(Materia materia)</text><ellipse cx="393.1" cy="986.8428" fill="#84BE84" rx="3" ry="3" style="stroke:#038048;stroke-width:1;"/><text fill="#000000" font-family="sans-serif" font-size="14" lengthAdjust="spacing" textLength="256.6143" x="402.1" y="990.1895">desinscribirMateria(Materia materia)</text><ellipse cx="393.1" cy="1003.1397" fill="#84BE84" rx="3" ry="3" style="stroke:#038048;stroke-width:1;"/><text fill="#000000" font-family="sans-serif" font-size="14" lengthAdjust="spacing" textLength="185.3359" x="402.1" y="1006.4864">actualizar(String mensaje)</text><ellipse cx="393.1" cy="1019.4366" fill="#84BE84" rx="3" ry="3" style="stroke:#038048;stroke-width:1;"/><text fill="#000000" font-family="sans-serif" font-size="14" lengthAdjust="spacing" textLength="140.793" x="402.1" y="1022.7832">getNombre(): String</text><ellipse cx="393.1" cy="1035.7334" fill="#84BE84" rx="3" ry="3" style="stroke:#038048;stroke-width:1;"/><text fill="#000000" font-family="sans-serif" font-size="14" lengthAdjust="spacing" textLength="97.877" x="402.1" y="1039.0801">getId(): String</text><ellipse cx="393.1" cy="1052.0303" fill="#84BE84" rx="3" ry="3" style="stroke:#038048;stroke-width:1;"/><text fill="#000000" font-family="sans-serif" font-size="14" lengthAdjust="spacing" textLength="123.7031" x="402.1" y="1055.377">getEmail(): String</text><ellipse cx="393.1" cy="1068.3272" fill="#84BE84" rx="3" ry="3" style="stroke:#038048;stroke-width:1;"/><text fill="#000000" font-family="sans-serif" font-size="14" lengthAdjust="spacing" textLength="261.7959" x="402.1" y="1071.6739">getMateriasInscritas(): Set&lt;Materia&gt;</text></g><!--class AdministradorInscripciones--><g id="elem_AdministradorInscripciones"><rect codeLine="78" fill="#F1F1F1" height="227.2656" id="AdministradorInscripciones" rx="2.5" ry="2.5" style="stroke:#181818;stroke-width:0.5;" width="371.3037" x="1104.35" y="506.71"/><ellipse cx="1190.4828" cy="522.71" fill="#ADD1B2" rx="11" ry="11" style="stroke:#181818;stroke-width:1;"/><path d="M1193.4516,528.3506 Q1192.8734,528.6475 1192.2328,528.7881 Q1191.5922,528.9444 1190.8891,528.9444 Q1188.3891,528.9444 1187.0609,527.3038 Q1185.7484,525.6475 1185.7484,522.5225 Q1185.7484,519.3975 1187.0609,517.7413 Q1188.3891,516.085 1190.8891,516.085 Q1191.5922,516.085 1192.2328,516.2413 Q1192.8891,516.3975 1193.4516,516.6944 L1193.4516,519.4131 Q1192.8266,518.835 1192.2328,518.5694 Q1191.6391,518.2881 1191.0141,518.2881 Q1189.6703,518.2881 1188.9828,519.3663 Q1188.2953,520.4288 1188.2953,522.5225 Q1188.2953,524.6163 1188.9828,525.6944 Q1189.6703,526.7569 1191.0141,526.7569 Q1191.6391,526.7569 1192.2328,526.4913 Q1192.8266,526.21 1193.4516,525.6319 L1193.4516,528.3506 Z " fill="#000000"/><text fill="#000000" font-family="sans-serif" font-size="14" lengthAdjust="spacing" textLength="190.5381" x="1210.9828" y="527.5567">AdministradorInscripciones</text><line style="stroke:#181818;stroke-width:0.5;" x1="1105.35" x2="1474.6537" y1="538.71" y2="538.71"/><rect fill="none" height="6" style="stroke:#C82930;stroke-width:1;" width="6" x="1112.35" y="549.3584"/><text fill="#000000" font-family="sans-serif" font-size="14" lengthAdjust="spacing" textLength="301.041" x="1124.35" y="555.7051">static AdministradorInscripciones instancia</text><rect fill="none" height="6" style="stroke:#C82930;stroke-width:1;" width="6" x="1112.35" y="565.6553"/><text fill="#000000" font-family="sans-serif" font-size="14" lengthAdjust="spacing" textLength="171.3359" x="1124.35" y="572.002">List&lt;IMateria&gt; materias</text><rect fill="none" height="6" style="stroke:#C82930;stroke-width:1;" width="6" x="1112.35" y="581.9522"/><text fill="#000000" font-family="sans-serif" font-size="14" lengthAdjust="spacing" textLength="209.1113" x="1124.35" y="588.2989">List&lt;Estudiante&gt; estudiantes</text><line style="stroke:#181818;stroke-width:0.5;" x1="1105.35" x2="1474.6537" y1="595.6006" y2="595.6006"/><ellipse cx="1115.35" cy="609.2491" fill="#84BE84" rx="3" ry="3" style="stroke:#038048;stroke-width:1;"/><text fill="#000000" font-family="sans-serif" font-size="14" lengthAdjust="spacing" textLength="336.0547" x="1124.35" y="612.5957">static getInstance(): AdministradorInscripciones</text><ellipse cx="1115.35" cy="625.5459" fill="#84BE84" rx="3" ry="3" style="stroke:#038048;stroke-width:1;"/><text fill="#000000" font-family="sans-serif" font-size="14" lengthAdjust="spacing" textLength="235.0742" x="1124.35" y="628.8926">agregarMateria(IMateria materia)</text><ellipse cx="1115.35" cy="641.8428" fill="#84BE84" rx="3" ry="3" style="stroke:#038048;stroke-width:1;"/><text fill="#000000" font-family="sans-serif" font-size="14" lengthAdjust="spacing" textLength="285.5508" x="1124.35" y="645.1895">obtenerMateria(String nombre): IMateria</text><ellipse cx="1115.35" cy="658.1397" fill="#84BE84" rx="3" ry="3" style="stroke:#038048;stroke-width:1;"/><text fill="#000000" font-family="sans-serif" font-size="14" lengthAdjust="spacing" textLength="305.7646" x="1124.35" y="661.4864">obtenerTodasLasMaterias(): List&lt;IMateria&gt;</text><ellipse cx="1115.35" cy="674.4366" fill="#84BE84" rx="3" ry="3" style="stroke:#038048;stroke-width:1;"/><text fill="#000000" font-family="sans-serif" font-size="14" lengthAdjust="spacing" textLength="299.6602" x="1124.35" y="677.7832">registrarEstudiante(Estudiante estudiante)</text><ellipse cx="1115.35" cy="690.7334" fill="#84BE84" rx="3" ry="3" style="stroke:#038048;stroke-width:1;"/><text fill="#000000" font-family="sans-serif" font-size="14" lengthAdjust="spacing" textLength="325.1172" x="1124.35" y="694.0801">obtenerEstudiante(String nombre): Estudiante</text><ellipse cx="1115.35" cy="707.0303" fill="#84BE84" rx="3" ry="3" style="stroke:#038048;stroke-width:1;"/><text fill="#000000" font-family="sans-serif" font-size="14" lengthAdjust="spacing" textLength="345.3037" x="1124.35" y="710.377">obtenerTodosLosEstudiantes(): List&lt;Estudiante&gt;</text><ellipse cx="1115.35" cy="723.3272" fill="#84BE84" rx="3" ry="3" style="stroke:#038048;stroke-width:1;"/><text fill="#000000" font-family="sans-serif" font-size="14" lengthAdjust="spacing" textLength="100.1602" x="1124.35" y="726.6739">limpiarDatos()</text></g><!--class Observador--><g id="elem_Observador"><rect codeLine="96" fill="#F1F1F1" height="64.2969" id="Observador" rx="2.5" ry="2.5" style="stroke:#181818;stroke-width:0.5;" width="211.3359" x="22.33" y="588.19"/><ellipse cx="82.9272" cy="604.19" fill="#ADD1B2" rx="11" ry="11" style="stroke:#181818;stroke-width:1;"/><path d="M85.8959,609.8306 Q85.3178,610.1275 84.6772,610.2681 Q84.0365,610.4244 83.3334,610.4244 Q80.8334,610.4244 79.5053,608.7838 Q78.1928,607.1275 78.1928,604.0025 Q78.1928,600.8775 79.5053,599.2213 Q80.8334,597.565 83.3334,597.565 Q84.0365,597.565 84.6772,597.7213 Q85.3334,597.8775 85.8959,598.1744 L85.8959,600.8931 Q85.2709,600.315 84.6772,600.0494 Q84.0834,599.7681 83.4584,599.7681 Q82.1147,599.7681 81.4272,600.8463 Q80.7397,601.9088 80.7397,604.0025 Q80.7397,606.0963 81.4272,607.1744 Q82.1147,608.2369 83.4584,608.2369 Q84.0834,608.2369 84.6772,607.9713 Q85.2709,607.69 85.8959,607.1119 L85.8959,609.8306 Z " fill="#000000"/><text fill="#000000" font-family="sans-serif" font-size="14" lengthAdjust="spacing" textLength="81.6416" x="103.4272" y="609.0367">Observador</text><line style="stroke:#181818;stroke-width:0.5;" x1="23.33" x2="232.6659" y1="620.19" y2="620.19"/><line style="stroke:#181818;stroke-width:0.5;" x1="23.33" x2="232.6659" y1="628.19" y2="628.19"/><ellipse cx="33.33" cy="641.8384" fill="#84BE84" rx="3" ry="3" style="stroke:#038048;stroke-width:1;"/><text fill="#000000" font-family="sans-serif" font-size="14" lengthAdjust="spacing" textLength="185.3359" x="42.33" y="645.1851">actualizar(String mensaje)</text></g><!--class UniversidadPiloto--><g id="elem_UniversidadPiloto"><rect codeLine="103" fill="#F1F1F1" height="64.2969" id="UniversidadPiloto" rx="2.5" ry="2.5" style="stroke:#181818;stroke-width:0.5;" width="159.5742" x="1359.21" y="41"/><ellipse cx="1376.6995" cy="57" fill="#ADD1B2" rx="11" ry="11" style="stroke:#181818;stroke-width:1;"/><path d="M1379.6683,62.6406 Q1379.0901,62.9375 1378.4495,63.0781 Q1377.8089,63.2344 1377.1058,63.2344 Q1374.6058,63.2344 1373.2776,61.5938 Q1371.9651,59.9375 1371.9651,56.8125 Q1371.9651,53.6875 1373.2776,52.0313 Q1374.6058,50.375 1377.1058,50.375 Q1377.8089,50.375 1378.4495,50.5313 Q1379.1058,50.6875 1379.6683,50.9844 L1379.6683,53.7031 Q1379.0433,53.125 1378.4495,52.8594 Q1377.8558,52.5781 1377.2308,52.5781 Q1375.887,52.5781 1375.1995,53.6563 Q1374.512,54.7188 1374.512,56.8125 Q1374.512,58.9063 1375.1995,59.9844 Q1375.887,61.0469 1377.2308,61.0469 Q1377.8558,61.0469 1378.4495,60.7813 Q1379.0433,60.5 1379.6683,59.9219 L1379.6683,62.6406 Z " fill="#000000"/><text fill="#000000" font-family="sans-serif" font-size="14" lengthAdjust="spacing" textLength="122.042" x="1391.2527" y="61.8467">UniversidadPiloto</text><line style="stroke:#181818;stroke-width:0.5;" x1="1360.21" x2="1517.7842" y1="73" y2="73"/><line style="stroke:#181818;stroke-width:0.5;" x1="1360.21" x2="1517.7842" y1="81" y2="81"/><ellipse cx="1370.21" cy="94.6484" fill="#84BE84" rx="3" ry="3" style="stroke:#038048;stroke-width:1;"/><text fill="#000000" font-family="sans-serif" font-size="14" lengthAdjust="spacing" textLength="133.5742" x="1379.21" y="97.9951">main(String[] args)</text></g><!--class GestorMateriaVentana--><g id="elem_GestorMateriaVentana"><rect codeLine="107" fill="#F1F1F1" height="64.2969" id="GestorMateriaVentana" rx="2.5" ry="2.5" style="stroke:#181818;stroke-width:0.5;" width="291.5352" x="1752.23" y="252.48"/><ellipse cx="1814.6797" cy="268.48" fill="#ADD1B2" rx="11" ry="11" style="stroke:#181818;stroke-width:1;"/><path d="M1817.6485,274.1206 Q1817.0703,274.4175 1816.4297,274.5581 Q1815.7891,274.7144 1815.086,274.7144 Q1812.586,274.7144 1811.2578,273.0738 Q1809.9453,271.4175 1809.9453,268.2925 Q1809.9453,265.1675 1811.2578,263.5113 Q1812.586,261.855 1815.086,261.855 Q1815.7891,261.855 1816.4297,262.0113 Q1817.086,262.1675 1817.6485,262.4644 L1817.6485,265.1831 Q1817.0235,264.605 1816.4297,264.3394 Q1815.836,264.0581 1815.211,264.0581 Q1813.8672,264.0581 1813.1797,265.1363 Q1812.4922,266.1988 1812.4922,268.2925 Q1812.4922,270.3863 1813.1797,271.4644 Q1813.8672,272.5269 1815.211,272.5269 Q1815.836,272.5269 1816.4297,272.2613 Q1817.0235,271.98 1817.6485,271.4019 L1817.6485,274.1206 Z " fill="#000000"/><text fill="#000000" font-family="sans-serif" font-size="14" lengthAdjust="spacing" textLength="158.1357" x="1835.1797" y="273.3267">GestorMateriaVentana</text><line style="stroke:#181818;stroke-width:0.5;" x1="1753.23" x2="2042.7652" y1="284.48" y2="284.48"/><line style="stroke:#181818;stroke-width:0.5;" x1="1753.23" x2="2042.7652" y1="292.48" y2="292.48"/><ellipse cx="1763.23" cy="306.1284" fill="#84BE84" rx="3" ry="3" style="stroke:#038048;stroke-width:1;"/><text fill="#000000" font-family="sans-serif" font-size="14" lengthAdjust="spacing" textLength="265.5352" x="1772.23" y="309.4751">GestorMateriaVentana(JFrame owner)</text></g><!--class GestorEstudianteVentana--><g id="elem_GestorEstudianteVentana"><rect codeLine="111" fill="#F1F1F1" height="64.2969" id="GestorEstudianteVentana" rx="2.5" ry="2.5" style="stroke:#181818;stroke-width:0.5;" width="313.3828" x="808.31" y="252.48"/><ellipse cx="870.7597" cy="268.48" fill="#ADD1B2" rx="11" ry="11" style="stroke:#181818;stroke-width:1;"/><path d="M873.7285,274.1206 Q873.1503,274.4175 872.5097,274.5581 Q871.8691,274.7144 871.166,274.7144 Q868.666,274.7144 867.3378,273.0738 Q866.0253,271.4175 866.0253,268.2925 Q866.0253,265.1675 867.3378,263.5113 Q868.666,261.855 871.166,261.855 Q871.8691,261.855 872.5097,262.0113 Q873.166,262.1675 873.7285,262.4644 L873.7285,265.1831 Q873.1035,264.605 872.5097,264.3394 Q871.916,264.0581 871.291,264.0581 Q869.9472,264.0581 869.2597,265.1363 Q868.5722,266.1988 868.5722,268.2925 Q868.5722,270.3863 869.2597,271.4644 Q869.9472,272.5269 871.291,272.5269 Q871.916,272.5269 872.5097,272.2613 Q873.1035,271.98 873.7285,271.4019 L873.7285,274.1206 Z " fill="#000000"/><text fill="#000000" font-family="sans-serif" font-size="14" lengthAdjust="spacing" textLength="179.9834" x="891.2597" y="273.3267">GestorEstudianteVentana</text><line style="stroke:#181818;stroke-width:0.5;" x1="809.31" x2="1120.6928" y1="284.48" y2="284.48"/><line style="stroke:#181818;stroke-width:0.5;" x1="809.31" x2="1120.6928" y1="292.48" y2="292.48"/><ellipse cx="819.31" cy="306.1284" fill="#84BE84" rx="3" ry="3" style="stroke:#038048;stroke-width:1;"/><text fill="#000000" font-family="sans-serif" font-size="14" lengthAdjust="spacing" textLength="287.3828" x="828.31" y="309.4751">GestorEstudianteVentana(JFrame owner)</text></g><!--class InscripcionVentana--><g id="elem_InscripcionVentana"><rect codeLine="115" fill="#F1F1F1" height="64.2969" id="InscripcionVentana" rx="2.5" ry="2.5" style="stroke:#181818;stroke-width:0.5;" width="267.5342" x="1156.23" y="252.48"/><ellipse cx="1218.6797" cy="268.48" fill="#ADD1B2" rx="11" ry="11" style="stroke:#181818;stroke-width:1;"/><path d="M1221.6485,274.1206 Q1221.0703,274.4175 1220.4297,274.5581 Q1219.7891,274.7144 1219.086,274.7144 Q1216.586,274.7144 1215.2578,273.0738 Q1213.9453,271.4175 1213.9453,268.2925 Q1213.9453,265.1675 1215.2578,263.5113 Q1216.586,261.855 1219.086,261.855 Q1219.7891,261.855 1220.4297,262.0113 Q1221.086,262.1675 1221.6485,262.4644 L1221.6485,265.1831 Q1221.0235,264.605 1220.4297,264.3394 Q1219.836,264.0581 1219.211,264.0581 Q1217.8672,264.0581 1217.1797,265.1363 Q1216.4922,266.1988 1216.4922,268.2925 Q1216.4922,270.3863 1217.1797,271.4644 Q1217.8672,272.5269 1219.211,272.5269 Q1219.836,272.5269 1220.4297,272.2613 Q1221.0235,271.98 1221.6485,271.4019 L1221.6485,274.1206 Z " fill="#000000"/><text fill="#000000" font-family="sans-serif" font-size="14" lengthAdjust="spacing" textLength="134.1348" x="1239.1797" y="273.3267">InscripcionVentana</text><line style="stroke:#181818;stroke-width:0.5;" x1="1157.23" x2="1422.7642" y1="284.48" y2="284.48"/><line style="stroke:#181818;stroke-width:0.5;" x1="1157.23" x2="1422.7642" y1="292.48" y2="292.48"/><ellipse cx="1167.23" cy="306.1284" fill="#84BE84" rx="3" ry="3" style="stroke:#038048;stroke-width:1;"/><text fill="#000000" font-family="sans-serif" font-size="14" lengthAdjust="spacing" textLength="241.5342" x="1176.23" y="309.4751">InscripcionVentana(JFrame owner)</text></g><!--class ResumenVentana--><g id="elem_ResumenVentana"><rect codeLine="119" fill="#F1F1F1" height="64.2969" id="ResumenVentana" rx="2.5" ry="2.5" style="stroke:#181818;stroke-width:0.5;" width="257.6152" x="1459.19" y="252.48"/><ellipse cx="1521.6397" cy="268.48" fill="#ADD1B2" rx="11" ry="11" style="stroke:#181818;stroke-width:1;"/><path d="M1524.6085,274.1206 Q1524.0303,274.4175 1523.3897,274.5581 Q1522.7491,274.7144 1522.046,274.7144 Q1519.546,274.7144 1518.2178,273.0738 Q1516.9053,271.4175 1516.9053,268.2925 Q1516.9053,265.1675 1518.2178,263.5113 Q1519.546,261.855 1522.046,261.855 Q1522.7491,261.855 1523.3897,262.0113 Q1524.046,262.1675 1524.6085,262.4644 L1524.6085,265.1831 Q1523.9835,264.605 1523.3897,264.3394 Q1522.796,264.0581 1522.171,264.0581 Q1520.8272,264.0581 1520.1397,265.1363 Q1519.4522,266.1988 1519.4522,268.2925 Q1519.4522,270.3863 1520.1397,271.4644 Q1520.8272,272.5269 1522.171,272.5269 Q1522.796,272.5269 1523.3897,272.2613 Q1523.9835,271.98 1524.6085,271.4019 L1524.6085,274.1206 Z " fill="#000000"/><text fill="#000000" font-family="sans-serif" font-size="14" lengthAdjust="spacing" textLength="124.2158" x="1542.1397" y="273.3267">ResumenVentana</text><line style="stroke:#181818;stroke-width:0.5;" x1="1460.19" x2="1715.8052" y1="284.48" y2="284.48"/><line style="stroke:#181818;stroke-width:0.5;" x1="1460.19" x2="1715.8052" y1="292.48" y2="292.48"/><ellipse cx="1470.19" cy="306.1284" fill="#84BE84" rx="3" ry="3" style="stroke:#038048;stroke-width:1;"/><text fill="#000000" font-family="sans-serif" font-size="14" lengthAdjust="spacing" textLength="231.6152" x="1479.19" y="309.4751">ResumenVentana(JFrame owner)</text></g><!--reverse link IMateria to Materia--><g id="link_IMateria_Materia"><path d="M556.1008,399.828 C551.1008,425.908 548.95,437.12 543.5,465.51 " fill="none" id="IMateria-backto-Materia" style="stroke:#181818;stroke-width:1;stroke-dasharray:7.0,7.0;"/><polygon fill="none" points="559.49,382.15,550.2081,398.6983,561.9935,400.9578,559.49,382.15" style="stroke:#181818;stroke-width:1;"/></g><!--reverse link IMateria to MateriaDecorador--><g id="link_IMateria_MateriaDecorador"><path d="M682.3979,395.1805 C721.9279,436.6605 755.8,472.22 796.17,514.57 " fill="none" id="IMateria-backto-MateriaDecorador" style="stroke:#181818;stroke-width:1;stroke-dasharray:7.0,7.0;"/><polygon fill="none" points="669.98,382.15,678.0544,399.3198,686.7415,391.0412,669.98,382.15" style="stroke:#181818;stroke-width:1;"/></g><!--reverse link MateriaDecorador to MateriaConPrerequisito--><g id="link_MateriaDecorador_MateriaConPrerequisito"><path d="M896,744.12 C896,804.21 896,859.24 896,908.48 " fill="none" id="MateriaDecorador-backto-MateriaConPrerequisito" style="stroke:#181818;stroke-width:1;"/><polygon fill="none" points="896,726.12,890,744.12,902,744.12,896,726.12" style="stroke:#181818;stroke-width:1;"/></g><!--reverse link IObservador to Estudiante--><g id="link_IObservador_Estudiante"><path d="M259.099,335.1513 C251.999,416.1913 243.54,618.19 323,774.71 C337.68,803.63 358.66,830.45 381.61,854.26 " fill="none" id="IObservador-backto-Estudiante" style="stroke:#181818;stroke-width:1;stroke-dasharray:7.0,7.0;"/><polygon fill="none" points="260.67,317.22,253.1219,334.6277,265.0761,335.675,260.67,317.22" style="stroke:#181818;stroke-width:1;"/></g><!--reverse link IObservador to Observador--><g id="link_IObservador_Observador"><path d="M244.4153,333.6883 C218.4853,397.2983 166.83,524.05 140.86,587.78 " fill="none" id="IObservador-backto-Observador" style="stroke:#181818;stroke-width:1;stroke-dasharray:7.0,7.0;"/><polygon fill="none" points="251.21,317.02,238.8592,331.4234,249.9714,335.9532,251.21,317.02" style="stroke:#181818;stroke-width:1;"/></g><!--link UniversidadPiloto to GestorMateriaVentana--><g id="link_UniversidadPiloto_GestorMateriaVentana"><path codeLine="123" d="M1519.2,82.86 C1580.6,91.94 1666.02,109.86 1734,144.29 C1787.99,171.64 1835.1941,215.8233 1865.6041,247.7833 " fill="none" id="UniversidadPiloto-to-GestorMateriaVentana" style="stroke:#181818;stroke-width:1;"/><polygon fill="#181818" points="1869.74,252.13,1866.4339,242.8526,1866.2934,248.5077,1860.6383,248.3672,1869.74,252.13" style="stroke:#181818;stroke-width:1;"/></g><!--link UniversidadPiloto to GestorEstudianteVentana--><g id="link_UniversidadPiloto_GestorEstudianteVentana"><path codeLine="124" d="M1359.01,83.01 C1296.63,92.2 1209.11,110.21 1139,144.29 C1082.61,171.7 1032.1945,216.0197 999.6245,247.9497 " fill="none" id="UniversidadPiloto-to-GestorEstudianteVentana" style="stroke:#181818;stroke-width:1;"/><polygon fill="#181818" points="995.34,252.15,1004.567,248.7058,998.9104,248.6497,998.9666,242.9931,995.34,252.15" style="stroke:#181818;stroke-width:1;"/></g><!--link UniversidadPiloto to InscripcionVentana--><g id="link_UniversidadPiloto_InscripcionVentana"><path codeLine="125" d="M1416.69,105.51 C1388.6,145 1344.0977,207.5707 1315.9377,247.1607 " fill="none" id="UniversidadPiloto-to-InscripcionVentana" style="stroke:#181818;stroke-width:1;"/><polygon fill="#181818" points="1312.46,252.05,1320.9361,247.0345,1315.3581,247.9756,1314.417,242.3975,1312.46,252.05" style="stroke:#181818;stroke-width:1;"/></g><!--link UniversidadPiloto to ResumenVentana--><g id="link_UniversidadPiloto_ResumenVentana"><path codeLine="126" d="M1461.31,105.51 C1489.4,145 1533.9023,207.5707 1562.0623,247.1607 " fill="none" id="UniversidadPiloto-to-ResumenVentana" style="stroke:#181818;stroke-width:1;"/><polygon fill="#181818" points="1565.54,252.05,1563.583,242.3975,1562.6419,247.9756,1557.0639,247.0345,1565.54,252.05" style="stroke:#181818;stroke-width:1;"/></g><!--link GestorMateriaVentana to AdministradorInscripciones--><g id="link_GestorMateriaVentana_AdministradorInscripciones"><path codeLine="130" d="M1859.32,317.19 C1826.95,342.81 1778.97,378.98 1734,405.96 C1652.05,455.14 1562.492,499.545 1481.442,536.785 " fill="none" id="GestorMateriaVentana-to-AdministradorInscripciones" style="stroke:#181818;stroke-width:1;"/><polygon fill="#181818" points="1475.99,539.29,1485.8381,539.1671,1480.5334,537.2025,1482.498,531.8977,1475.99,539.29" style="stroke:#181818;stroke-width:1;"/></g><!--link GestorEstudianteVentana to AdministradorInscripciones--><g id="link_GestorEstudianteVentana_AdministradorInscripciones"><path codeLine="131" d="M995.58,317.02 C1037.53,360.1 1110.9541,435.4914 1175.9641,502.2514 " fill="none" id="GestorEstudianteVentana-to-AdministradorInscripciones" style="stroke:#181818;stroke-width:1;"/><polygon fill="#181818" points="1180.15,506.55,1176.7368,497.3115,1176.6617,502.9678,1171.0054,502.8927,1180.15,506.55" style="stroke:#181818;stroke-width:1;"/></g><!--link InscripcionVentana to AdministradorInscripciones--><g id="link_InscripcionVentana_AdministradorInscripciones"><path codeLine="132" d="M1290,317.02 C1290,360.1 1290,433.79 1290,500.55 " fill="none" id="InscripcionVentana-to-AdministradorInscripciones" style="stroke:#181818;stroke-width:1;"/><polygon fill="#181818" points="1290,506.55,1294,497.55,1290,501.55,1286,497.55,1290,506.55" style="stroke:#181818;stroke-width:1;"/></g><!--link ResumenVentana to AdministradorInscripciones--><g id="link_ResumenVentana_AdministradorInscripciones"><path codeLine="133" d="M1559.96,317.02 C1521.5,360.1 1454.3262,435.3145 1394.7162,502.0745 " fill="none" id="ResumenVentana-to-AdministradorInscripciones" style="stroke:#181818;stroke-width:1;"/><polygon fill="#181818" points="1390.72,506.55,1399.698,502.5008,1394.0502,502.8204,1393.7306,497.1726,1390.72,506.55" style="stroke:#181818;stroke-width:1;"/></g><!--link AdministradorInscripciones to Estudiante--><g id="link_AdministradorInscripciones_Estudiante"><path codeLine="135" d="M1157.04,734.37 C1134.65,749.63 1110.9,763.77 1087,774.71 C939.03,842.48 881.36,794.5 729,851.71 C709.47,859.05 694.9215,865.3467 675.5515,874.9867 " fill="none" id="AdministradorInscripciones-to-Estudiante" style="stroke:#181818;stroke-width:1;"/><polygon fill="#181818" points="670.18,877.66,680.0195,877.2311,674.6563,875.4323,676.4551,870.069,670.18,877.66" style="stroke:#181818;stroke-width:1;"/></g><!--link AdministradorInscripciones to IMateria--><g id="link_AdministradorInscripciones_IMateria"><path codeLine="136" d="M1200.74,506.22 C1168.62,473.53 1129.66,441.67 1087,422.96 C1026.86,396.6 855.02,424.42 792,405.96 C771.55,399.97 756.3498,394.2829 736.3998,384.9029 " fill="none" id="AdministradorInscripciones-to-IMateria" style="stroke:#181818;stroke-width:1;"/><polygon fill="#181818" points="730.97,382.35,737.4127,389.7993,735.4948,384.4775,740.8166,382.5596,730.97,382.35" style="stroke:#181818;stroke-width:1;"/></g><!--link Estudiante to Materia--><g id="link_Estudiante_Materia"><path codeLine="138" d="M617.49,851.61 C622.04,836.37 623.21,820.52 619,804.71 C616.36,794.79 615.2095,790.4341 611.3895,780.5841 " fill="none" id="Estudiante-to-Materia" style="stroke:#181818;stroke-width:1;"/><polygon fill="#181818" points="609.22,774.99,608.7448,784.8274,611.0279,779.6517,616.2036,781.9348,609.22,774.99" style="stroke:#181818;stroke-width:1;"/><text fill="#000000" font-family="sans-serif" font-size="13" lengthAdjust="spacing" textLength="68.1484" x="622" y="817.7769">inscrito en</text><text fill="#000000" font-family="sans-serif" font-size="13" lengthAdjust="spacing" textLength="8.271" x="615.3775" y="840.536">1</text><text fill="#000000" font-family="sans-serif" font-size="13" lengthAdjust="spacing" textLength="6.5" x="607.699" y="794.9145">*</text></g><!--link Materia to Estudiante--><g id="link_Materia_Estudiante"><path codeLine="139" d="M434.61,774.96 C432.89,790.63 433.66,806.41 438,821.71 C440.82,831.65 442.1085,836.0992 446.4385,845.8192 " fill="none" id="Materia-to-Estudiante" style="stroke:#181818;stroke-width:1;"/><polygon fill="#181818" points="448.88,851.3,448.8715,841.4511,446.8454,846.7327,441.5638,844.7065,448.88,851.3" style="stroke:#181818;stroke-width:1;"/><text fill="#000000" font-family="sans-serif" font-size="13" lengthAdjust="spacing" textLength="171.8057" x="439" y="817.7769">tiene estudiantes inscritos</text><text fill="#000000" font-family="sans-serif" font-size="13" lengthAdjust="spacing" textLength="8.271" x="422.5774" y="794.883">1</text><text fill="#000000" font-family="sans-serif" font-size="13" lengthAdjust="spacing" textLength="6.5" x="437.7635" y="840.5848">*</text></g><!--SRC=[tLV9Rjim4BthAmXVuhH8WLw3m43XfAsBf3NIvLBqC9Oc2bj9T4WwBHBag_e9_R6E5aeZYR9YNxhuOCkpaNplSKWTY5EfCGpbhv-PY50aO4H8NsZoV_BkPYDHHo20_bBSDGH1S22MSBD1Ytd88hEeho144wmX_0OnYabZcuZxGD17EejON00zIgWS-USfkKsevKhgwPcncqW2XGki7mzPACGQOz3lLWRrBKHAJnVDir3r8y_HcAfRt2qdKrPUoP2FX6RwtcgPnIB5pC3NrhnYj6zLkj8uFJmMPLZRErUHZDMGzxNIeEMWUxvP5px2iUrey3AB0aIhJ1vuBeqzQPop8kiXw9B1OE1yG6WtaCWxqDuLFmGF7HLSg0WJnIHG6Hp_kQICSDJBT9qWLRI6oUUPHnb75HZ4HWvjtnuMeFRjroMSp46B5Y6Xo4m5HWo26PC2oRaJoC1aqcnG_x_adCWL4eIbxlvDcSFAM4rARell54EQGmxK3YgiZMdvkn_NVmAxlxXTxiDfYygvofQQJYKwemmb2_nXCOiyJ7kfN5DgdRiVeGRjabUP-ejtrjrEeGMxhFv2sGm6rEfjuADjKqPz6wOW4sv6Ur9DREPqxuW2RxUhegUTpSAN7w7P9Npa77hajbf4GvwpVCr3pelkcej0XagVhnTHAZEPjnqYfCnRXr9bT9lYx1WBLeRReWaa2rd8EeqxhdgKFFASuh8jXy-HAOSfa1kUJR-TEEeMMxXJAzgDM8Us5DaLVIlZWuh0d8Dn-DSzOT42tlMgk9YpRfOzlc-hWLXATtQDopi_PSwLOVrhi6svmpHTIz2dK7GuBfly8kNkJBnptWUbeDZstgK1x763-qIL8GDsXNEMzXtkOoRfR30oWcWf4qLjbmzB-och1lpyHO2EpM5_bxmYLfGJHZLAguelOFhcfOOKXVfE50mMRV0VhjkB6IlDDeElQjyzLl0IpORey1LhkuOBzMauEffvWHiDx-6n9QE_rYt1xRMKYhl41AeUHsRDNpW3hoxoGbjQqn3j8saUIaSoEfoDH0TRUdkUolhBIAJdQXe4hCDDda-AkCcJIVr-TLoToVcTA0kSbKUo0iV2Icfh_Aoeqyrl]--></g></svg>